<svg width="24" height="24" viewBox="0 0 24 24" fill="none" xmlns="http://www.w3.org/2000/svg">
<g id="Group">
<path id="Vector" d="M19.988 3.24652L19.9877 3.24652C19.1008 3.24762 18.2507 3.60039 17.6236 4.22746C16.9966 4.85452 16.6438 5.70469 16.6427 6.59149L16.6426 6.59149L16.6428 6.59736C16.8106 11.023 23.1659 11.0217 23.3329 6.59733L23.333 6.59734L23.333 6.59149C23.3319 5.70469 22.9791 4.85452 22.3521 4.22746C21.725 3.60039 20.8748 3.24762 19.988 3.24652ZM8.12661 7.33594L8.12667 7.33596L8.12801 7.3318C8.15927 7.23475 8.16302 7.13094 8.13886 7.03188C8.11469 6.93282 8.06355 6.84239 7.99111 6.77063C7.91867 6.69888 7.82777 6.6486 7.72849 6.62537C7.6292 6.60214 7.52543 6.60688 7.42867 6.63905L7.42867 6.63904L7.42703 6.63961C7.14555 6.73685 6.84979 6.78631 6.55199 6.78595C5.82718 6.78505 5.1323 6.49675 4.61974 5.98426C4.10718 5.47177 3.81878 4.77693 3.81778 4.05212V4.05205C3.81723 3.75416 3.86669 3.45829 3.9641 3.17677L3.96412 3.17678L3.96486 3.1745C3.99659 3.07783 4.00102 2.97427 3.97764 2.87525C3.95427 2.77623 3.90402 2.68558 3.83241 2.61329C3.76081 2.54101 3.67064 2.4899 3.57184 2.46559C3.47304 2.44128 3.36945 2.44473 3.27248 2.47554L3.27248 2.47552L3.27012 2.47631C2.51047 2.73165 1.85036 3.2194 1.38318 3.87055C0.916006 4.5217 0.665426 5.30328 0.666884 6.10469L0.666922 6.10695C0.740018 10.4262 6.68359 11.4065 8.12661 7.33594ZM4.49996 8.83804H4.49977C3.91454 8.83785 3.34481 8.64991 2.87434 8.30184C2.40387 7.95377 2.05749 7.46395 1.88611 6.90437C1.71473 6.3448 1.72739 5.74501 1.92225 5.19317C2.08203 4.74065 2.35742 4.33996 2.71866 4.02958C2.71862 4.03701 2.71859 4.04444 2.71859 4.05187L2.71859 4.05209C2.71969 5.0683 3.1239 6.04258 3.84251 6.76111C4.56112 7.47965 5.53544 7.88375 6.55166 7.88474H6.55181C6.55973 7.88474 6.56764 7.88472 6.57556 7.88467C6.35405 8.14342 6.08537 8.35911 5.78289 8.5197C5.38783 8.72944 4.94724 8.83877 4.49996 8.83804ZM7.20407 3.54649L7.20407 3.54651L7.20666 3.54652C7.32547 3.54664 7.4411 3.50815 7.53614 3.43687C8.82552 2.47499 10.3911 1.95535 11.9997 1.95535C13.6083 1.95535 15.1738 2.47493 16.4632 3.43672C16.5208 3.47999 16.5864 3.5115 16.6562 3.52945C16.7262 3.54742 16.7989 3.55145 16.8704 3.5413C16.9418 3.53114 17.0106 3.50702 17.0727 3.47029C17.1349 3.43357 17.1892 3.38496 17.2325 3.32726C17.2759 3.26955 17.3074 3.20386 17.3254 3.13396C17.3434 3.06405 17.3474 2.99129 17.3373 2.91983C17.3271 2.84836 17.303 2.7796 17.2663 2.71746C17.2295 2.65533 17.1809 2.60103 17.1232 2.55768L17.1231 2.5576C15.645 1.44917 13.8473 0.85 11.9997 0.85C10.1522 0.85 8.35449 1.44917 6.87639 2.5576L6.87637 2.55758L6.87396 2.55946C6.78411 2.62974 6.71823 2.72613 6.68538 2.83537C6.65253 2.94461 6.65431 3.06135 6.6905 3.16954C6.72668 3.27772 6.79548 3.37205 6.88744 3.43954C6.9794 3.50704 7.09001 3.5444 7.20407 3.54649ZM17.1723 11.2168H17.1721H8.80479C8.65908 11.2168 8.51934 11.2747 8.41631 11.3777C8.31328 11.4808 8.2554 11.6205 8.2554 11.7662V12.9644L8.2554 12.9646C8.25577 13.2161 8.35583 13.4571 8.53364 13.635C8.71145 13.8128 8.9525 13.9128 9.20396 13.9132H9.20419L14.7957 13.9132L14.7959 13.9132C15.0474 13.9128 15.2884 13.8128 15.4663 13.635C15.6441 13.4571 15.7441 13.2161 15.7445 12.9646V12.9644V12.3156H17.172C17.344 12.3158 17.509 12.3842 17.6306 12.5059C17.7523 12.6275 17.8207 12.7925 17.8209 12.9646V22.0192L6.179 22.0492V12.9642C6.17917 12.7921 6.2476 12.6271 6.36926 12.5055C6.49092 12.3838 6.65588 12.3154 6.82794 12.3152H7.20721C7.35292 12.3152 7.49266 12.2573 7.59569 12.1543C7.69873 12.0513 7.75661 11.9115 7.75661 11.7658C7.75661 11.6201 7.69873 11.4804 7.59569 11.3773C7.49266 11.2743 7.35292 11.2164 7.20721 11.2164H6.82779H6.82764C6.36433 11.2169 5.92014 11.4012 5.59253 11.7288C5.26493 12.0564 5.08067 12.5006 5.08021 12.9639V12.964L5.08021 22.6006L5.08021 22.6015C5.08108 22.747 5.13937 22.8862 5.2424 22.989C5.34544 23.0917 5.48487 23.1496 5.63036 23.15L5.63119 23.15L18.3719 23.1168H18.3719C18.5174 23.1164 18.6567 23.0583 18.7594 22.9554C18.862 22.8524 18.9197 22.7129 18.9197 22.5675V17.7657V12.964V12.9639C18.9192 12.5006 18.735 12.0564 18.4074 11.7288C18.0797 11.4011 17.6355 11.2173 17.1723 11.2168ZM19.9878 4.34539C22.9553 4.44427 22.954 8.73985 19.9879 8.83796C17.0208 8.7391 17.0213 4.44389 19.9878 4.34539ZM14.6457 12.8144H9.35419V12.3156H14.6457V12.8144Z" fill="#64748B" stroke="#64748B" stroke-width="0.3"/>
<path id="Vector_2" d="M13.5975 17.9443C13.4916 17.9443 13.39 17.9864 13.3151 18.0613C13.2402 18.1362 13.1981 18.2378 13.1981 18.3437V18.7431L7.20677 18.7435C7.10084 18.7435 6.99925 18.7856 6.92435 18.8605C6.84945 18.9354 6.80737 19.037 6.80737 19.1429C6.80737 19.2488 6.84945 19.3504 6.92435 19.4253C6.99925 19.5002 7.10084 19.5423 7.20677 19.5423H13.1981V19.9417C13.1981 20.0476 13.2402 20.1492 13.3151 20.2241C13.39 20.299 13.4916 20.3411 13.5975 20.3411C13.7034 20.3411 13.805 20.299 13.8799 20.2241C13.9548 20.1492 13.9969 20.0476 13.9969 19.9417V19.5423H16.793C16.899 19.5423 17.0005 19.5002 17.0754 19.4253C17.1503 19.3504 17.1924 19.2488 17.1924 19.1429C17.1924 19.037 17.1503 18.9354 17.0754 18.8605C17.0005 18.7856 16.899 18.7435 16.793 18.7435H13.9969V18.3441C13.9969 18.2382 13.9548 18.1366 13.8799 18.0617C13.805 17.9868 13.7034 17.9443 13.5975 17.9443Z" fill="#64748B"/>
</g>
</svg>
