<svg width="19" height="22" viewBox="0 0 19 22" fill="none" xmlns="http://www.w3.org/2000/svg">
<g id="Group">
<path id="Vector" d="M13.7832 9.58732C13.7832 9.15399 13.4319 8.80273 12.9986 8.80273H4.91739C4.48407 8.80273 4.13281 9.15399 4.13281 9.58732C4.13281 10.0206 4.48407 10.3719 4.91739 10.3719H12.9986C13.4319 10.3719 13.7832 10.0206 13.7832 9.58732ZM4.91739 11.9411C4.48407 11.9411 4.13281 12.2923 4.13281 12.7256C4.13281 13.159 4.48407 13.5102 4.91739 13.5102H9.82539C10.2587 13.5102 10.61 13.159 10.61 12.7256C10.61 12.2923 10.2587 11.9411 9.82539 11.9411H4.91739Z" fill="#08496D"/>
<path id="Vector_2" d="M6.76233 19.4732H4.13833C3.27309 19.4732 2.56916 18.7692 2.56916 17.904V4.09536C2.56916 3.23012 3.27309 2.5262 4.13833 2.5262H13.7843C14.6496 2.5262 15.3535 3.23012 15.3535 4.09536V8.92054C15.3535 9.35387 15.7048 9.70512 16.1381 9.70512C16.5714 9.70512 16.9227 9.35387 16.9227 8.92054V4.09536C16.9227 2.36489 15.5148 0.957031 13.7843 0.957031H4.13833C2.40785 0.957031 1 2.36489 1 4.09536V17.904C1 19.6345 2.40785 21.0423 4.13833 21.0423H6.76233C7.19565 21.0423 7.54691 20.6911 7.54691 20.2578C7.54691 19.8244 7.19565 19.4732 6.76233 19.4732Z" fill="#08496D" stroke="#08496D" stroke-width="0.3"/>
<path id="Vector_3" d="M18.3112 12.3162C17.3935 11.3985 15.9003 11.3985 14.9831 12.3156L10.6756 16.6135C10.5842 16.7048 10.5167 16.8173 10.4791 16.9409L9.54102 20.0292C9.50018 20.1636 9.49619 20.3066 9.52946 20.4431C9.56273 20.5795 9.63204 20.7046 9.73015 20.8052C9.82826 20.9057 9.95156 20.9781 10.0872 21.0147C10.2228 21.0513 10.3658 21.0509 10.5012 21.0134L13.668 20.1362C13.7983 20.1001 13.9171 20.0309 14.0128 19.9353L18.3112 15.645C19.229 14.7272 19.229 13.234 18.3112 12.3162ZM13.0503 18.679L11.4571 19.1204L11.9233 17.5854L14.8298 14.6853L15.9396 15.7951L13.0503 18.679ZM17.2022 14.5349L17.0502 14.6866L15.9406 13.577L16.0921 13.4259C16.398 13.1199 16.8958 13.1199 17.2017 13.4259C17.5076 13.7318 17.5076 14.2295 17.2022 14.5349ZM12.9986 5.66406H4.91739C4.48407 5.66406 4.13281 6.01532 4.13281 6.44864C4.13281 6.88197 4.48407 7.23323 4.91739 7.23323H12.9986C13.4319 7.23323 13.7832 6.88197 13.7832 6.44864C13.7832 6.01532 13.4319 5.66406 12.9986 5.66406Z" fill="#08496D"/>
</g>
</svg>
