<svg width="21" height="24" viewBox="0 0 21 24" fill="none" xmlns="http://www.w3.org/2000/svg">
<path d="M10.5 24C10.3927 24 10.2855 23.9775 10.1858 23.931L7.9395 22.8945C3.117 20.6685 6.15765e-08 15.7972 6.15765e-08 10.485V3C-7.45763e-05 2.81571 0.0677055 2.63784 0.190407 2.50034C0.313108 2.36284 0.482141 2.27532 0.66525 2.2545C2.15138 2.08451 3.62782 1.83843 5.08875 1.51725C6.83756 1.13186 8.56106 0.639431 10.2495 0.04275C10.4115 -0.01425 10.5885 -0.01425 10.7498 0.04275C12.4384 0.639455 14.1622 1.13188 15.9113 1.51725C17.3647 1.8375 18.8535 2.08575 20.3348 2.2545C20.5179 2.27532 20.6869 2.36284 20.8096 2.50034C20.9323 2.63784 21.0001 2.81571 21 3V10.4858C21 15.798 17.8837 20.6685 13.0605 22.8945L10.8143 23.931C10.7157 23.9764 10.6085 23.9999 10.5 24ZM1.5 3.6645V10.4858C1.50437 12.8089 2.1718 15.0825 3.42385 17.0393C4.6759 18.9962 6.46054 20.555 8.568 21.5325L10.5 22.4227L12.432 21.531C14.5392 20.5536 16.3237 18.995 17.5757 17.0385C18.8278 15.0819 19.4953 12.8086 19.5 10.4858V3.6645C16.4355 3.26717 13.4198 2.55696 10.5 1.545C7.58022 2.55674 4.56448 3.26744 1.5 3.6645Z" fill="#64748B"/>
<path d="M13.5 17.25H7.5C6.67275 17.25 6 16.5773 6 15.75V10.5C6 9.67275 6.67275 9 7.5 9H13.5C14.3273 9 15 9.67275 15 10.5V15.75C15 16.5773 14.3273 17.25 13.5 17.25ZM7.5 10.5V15.75H13.5015L13.5 10.5H7.5Z" fill="#64748B"/>
<path d="M12.75 10.5H8.25C8.05109 10.5 7.86032 10.421 7.71967 10.2803C7.57902 10.1397 7.5 9.94891 7.5 9.75V8.25C7.5 6.5955 8.8455 5.25 10.5 5.25C12.1545 5.25 13.5 6.5955 13.5 8.25V9.75C13.5 9.94891 13.421 10.1397 13.2803 10.2803C13.1397 10.421 12.9489 10.5 12.75 10.5ZM9 9H12V8.25C12 7.42275 11.3273 6.75 10.5 6.75C9.67275 6.75 9 7.42275 9 8.25V9Z" fill="#64748B"/>
</svg>
