<svg width="26" height="26" viewBox="0 0 26 26" fill="none" xmlns="http://www.w3.org/2000/svg">
<path d="M25.1875 3.99904H19.375L21.3125 6.67972C21.4753 6.91878 21.6351 7.15984 21.7765 7.40991C22.9749 9.51221 23.4631 11.9659 23.1645 14.3857C22.8659 16.8056 21.7975 19.0545 20.1269 20.7794C18.4563 22.5043 16.2782 23.6075 13.9346 23.9158C11.591 24.2241 9.21453 23.72 7.17844 22.4827L6.19128 24.2042C8.59673 25.6649 11.4038 26.2598 14.172 25.8956C16.9403 25.5314 19.5131 24.2286 21.4869 22.1917C23.4607 20.1547 24.7237 17.4989 25.0779 14.6408C25.4321 11.7827 24.8573 8.88406 23.4438 6.39965C23.3672 6.26361 23.2752 6.13758 23.1928 6.00455H25.1875V3.99904ZM3.875 19.3229C3.71225 19.0839 3.55241 18.8428 3.41097 18.5927C2.21262 16.4904 1.72441 14.0367 2.02299 11.6169C2.32158 9.19706 3.39004 6.94814 5.06063 5.22322C6.73121 3.49831 8.90931 2.3951 11.2529 2.08681C13.5965 1.77852 15.973 2.2826 18.0091 3.51992L18.9962 1.79848C16.5903 0.336122 13.7822 -0.25984 11.0127 0.104166C8.24327 0.468173 5.66931 1.77154 3.69498 3.80961C1.72065 5.84769 0.457755 8.50507 0.104591 11.3645C-0.248574 14.224 0.327988 17.1235 1.74375 19.608C1.82028 19.744 1.91231 19.8701 1.99466 20.0031H0V22.0036H5.8125L2.95325 18.0955L2.14075 17.2288L3.875 19.3229Z" fill="#64748B"/>
<path d="M12.6562 8.85C11.2342 8.85 10.0688 9.96958 10.0688 11.3566C10.0688 12.7436 11.2342 13.8631 12.6562 13.8631C14.0783 13.8631 15.2438 12.7436 15.2438 11.3566C15.2438 9.96958 14.0783 8.85 12.6562 8.85ZM12.6562 13.0395C11.6889 13.0395 10.9104 12.2796 10.9104 11.3566C10.9104 10.4335 11.6889 9.67368 12.6562 9.67368C13.6236 9.67368 14.4021 10.4335 14.4021 11.3566C14.4021 12.2796 13.6236 13.0395 12.6562 13.0395ZM15.794 15.1456C15.0985 14.4629 14.1761 14.0868 13.1979 14.0868H12.1146C11.1364 14.0868 10.214 14.4629 9.51845 15.1456C8.82636 15.825 8.44375 16.7238 8.44375 17.6757C8.44375 17.9078 8.63698 18.0875 8.86458 18.0875H16.4479C16.6755 18.0875 16.8688 17.9078 16.8688 17.6757C16.8688 16.7238 16.4861 15.825 15.794 15.1456ZM15.9958 17.2638H9.31672C9.52045 15.9361 10.6954 14.9105 12.1146 14.9105H13.1979C14.6171 14.9105 15.792 15.9361 15.9958 17.2638Z" fill="#64748B" stroke="#64748B" stroke-width="0.3"/>
</svg>
